<svg width="18" height="18" viewBox="0 0 18 18" fill="none" xmlns="http://www.w3.org/2000/svg">
<path d="M9 0.25C4.16797 0.25 0.25 4.16797 0.25 9C0.25 13.832 4.16797 17.75 9 17.75C13.832 17.75 17.75 13.832 17.75 9C17.75 4.16797 13.832 0.25 9 0.25ZM12.75 9.46875C12.75 9.55469 12.6797 9.625 12.5938 9.625H9.625V12.5938C9.625 12.6797 9.55469 12.75 9.46875 12.75H8.53125C8.44531 12.75 8.375 12.6797 8.375 12.5938V9.625H5.40625C5.32031 9.625 5.25 9.55469 5.25 9.46875V8.53125C5.25 8.44531 5.32031 8.375 5.40625 8.375H8.375V5.40625C8.375 5.32031 8.44531 5.25 8.53125 5.25H9.46875C9.55469 5.25 9.625 5.32031 9.625 5.40625V8.375H12.5938C12.6797 8.375 12.75 8.44531 12.75 8.53125V9.46875Z" fill="#01555A"/>
</svg>
