<svg width="30" height="30" viewBox="0 0 30 30" fill="none" xmlns="http://www.w3.org/2000/svg">
<path fill-rule="evenodd" clip-rule="evenodd" d="M20.4062 18.6237L27.1312 25.3487C27.3676 25.5852 27.5003 25.906 27.5002 26.2404C27.5001 26.5748 27.3671 26.8954 27.1306 27.1318C26.894 27.3682 26.5733 27.5009 26.2389 27.5008C25.9045 27.5007 25.5838 27.3677 25.3475 27.1312L18.6225 20.4062C16.6121 21.9633 14.0841 22.696 11.5526 22.4554C9.02117 22.2147 6.67649 21.0187 4.99556 19.1107C3.31462 17.2027 2.42369 14.7259 2.50402 12.1844C2.58435 9.64277 3.62989 7.22725 5.42796 5.42918C7.22603 3.63111 9.64155 2.58557 12.1831 2.50524C14.7247 2.42491 17.2014 3.31584 19.1095 4.99678C21.0175 6.67771 22.2135 9.02239 22.4541 11.5538C22.6948 14.0853 21.962 16.6133 20.405 18.6237H20.4062ZM12.5 19.9999C14.4891 19.9999 16.3967 19.2097 17.8033 17.8032C19.2098 16.3967 20 14.489 20 12.4999C20 10.5108 19.2098 8.60315 17.8033 7.19662C16.3967 5.7901 14.4891 4.99992 12.5 4.99992C10.5108 4.99992 8.60318 5.7901 7.19665 7.19662C5.79013 8.60315 4.99995 10.5108 4.99995 12.4999C4.99995 14.489 5.79013 16.3967 7.19665 17.8032C8.60318 19.2097 10.5108 19.9999 12.5 19.9999ZM8.74995 13.7499C8.41843 13.7499 8.10049 13.6182 7.86607 13.3838C7.63165 13.1494 7.49995 12.8314 7.49995 12.4999C7.49995 12.1684 7.63165 11.8505 7.86607 11.616C8.10049 11.3816 8.41843 11.2499 8.74995 11.2499H16.25C16.5815 11.2499 16.8994 11.3816 17.1338 11.616C17.3683 11.8505 17.5 12.1684 17.5 12.4999C17.5 12.8314 17.3683 13.1494 17.1338 13.3838C16.8994 13.6182 16.5815 13.7499 16.25 13.7499H8.74995Z" fill="#01555A"/>
</svg>
