<svg width="21" height="20" viewBox="0 0 21 20" fill="none" xmlns="http://www.w3.org/2000/svg">
<path fill-rule="evenodd" clip-rule="evenodd" d="M0.378562 6.38774V0H2.81307V4.05941C4.67141 1.88917 7.53764 0.531779 10.6684 0.531779C15.8247 0.531779 20.2766 4.21591 20.6661 9.15203L20.6986 9.5816H18.2641L18.2284 9.2207C17.8843 5.71543 14.6545 2.92878 10.6717 2.92878C7.85413 2.92878 5.40664 4.32609 4.09849 6.38774H8.6916V8.78314H1.93178L0.37207 7.22613V6.38774H0.376939H0.378562ZM10.5224 19.5624C9.66146 19.5624 8.83582 19.2259 8.22707 18.627C7.61833 18.028 7.27634 17.2156 7.27634 16.3686C7.27634 15.5215 7.61833 14.7091 8.22707 14.1102C8.83582 13.5112 9.66146 13.1747 10.5224 13.1747C11.3832 13.1747 12.2089 13.5112 12.8176 14.1102C13.4264 14.7091 13.7684 15.5215 13.7684 16.3686C13.7684 17.2156 13.4264 18.028 12.8176 18.627C12.2089 19.2259 11.3832 19.5624 10.5224 19.5624Z" fill="#01555A"/>
</svg>
