<svg width="16" height="16" viewBox="0 0 16 16" fill="none" xmlns="http://www.w3.org/2000/svg">
<path fill-rule="evenodd" clip-rule="evenodd" d="M8 0C3.58182 0 0 3.58182 0 8C0 12.4182 3.58182 16 8 16C12.4182 16 16 12.4182 16 8C16 3.58182 12.4182 0 8 0ZM5.09091 7.27273C4.89802 7.27273 4.71304 7.34935 4.57665 7.48574C4.44026 7.62213 4.36364 7.80712 4.36364 8C4.36364 8.19288 4.44026 8.37787 4.57665 8.51426C4.71304 8.65065 4.89802 8.72727 5.09091 8.72727H10.9091C11.102 8.72727 11.287 8.65065 11.4234 8.51426C11.5597 8.37787 11.6364 8.19288 11.6364 8C11.6364 7.80712 11.5597 7.62213 11.4234 7.48574C11.287 7.34935 11.102 7.27273 10.9091 7.27273H5.09091Z" fill="#C39985"/>
</svg>
