<svg width="25" height="25" viewBox="0 0 25 25" fill="none" xmlns="http://www.w3.org/2000/svg">
<path d="M0.698874 24.3011C1.1465 24.7486 1.75353 25 2.38647 25C3.01941 25 3.62644 24.7486 4.07406 24.3011L12.5144 15.8608L20.9548 24.3011C21.405 24.7359 22.0079 24.9765 22.6338 24.9711C23.2596 24.9656 23.8583 24.7146 24.3009 24.272C24.7434 23.8295 24.9945 23.2308 24.9999 22.6049C25.0053 21.9791 24.7648 21.3761 24.3299 20.9259L15.8896 12.4856L24.3299 4.04524C24.7648 3.59505 25.0053 2.9921 24.9999 2.36624C24.9945 1.74038 24.7434 1.1417 24.3009 0.699131C23.8583 0.256566 23.2596 0.00553009 22.6338 9.15527e-05C22.0079 -0.00534698 21.405 0.235246 20.9548 0.670053L12.5144 9.1104L4.07406 0.670053C3.62387 0.235246 3.02092 -0.00534698 2.39506 9.15527e-05C1.7692 0.00553009 1.17052 0.256566 0.727951 0.699131C0.285386 1.1417 0.0343505 1.74038 0.028912 2.36624C0.0234734 2.9921 0.264067 3.59505 0.698874 4.04524L9.13923 12.4856L0.698874 20.9259C0.251385 21.3736 0 21.9806 0 22.6135C0 23.2465 0.251385 23.8535 0.698874 24.3011Z" fill="#01555A"/>
</svg>
