<svg width="24" height="23" viewBox="0 0 24 23" fill="none" xmlns="http://www.w3.org/2000/svg">
<path d="M12.0002 14.2463C11.8689 14.2464 11.7388 14.2221 11.6175 14.1747C11.4962 14.1273 11.386 14.0577 11.2932 13.97L7.05024 9.97016C6.86809 9.79233 6.76729 9.55415 6.76957 9.30692C6.77185 9.05969 6.87702 8.82319 7.06242 8.64837C7.24783 8.47354 7.49865 8.37438 7.76084 8.37223C8.02304 8.37008 8.27564 8.46512 8.46424 8.63688L12.0002 11.9701L15.5362 8.63688C15.7248 8.46512 15.9774 8.37008 16.2396 8.37223C16.5018 8.37438 16.7527 8.47354 16.9381 8.64837C17.1235 8.82319 17.2286 9.05969 17.2309 9.30692C17.2332 9.55415 17.1324 9.79233 16.9502 9.97016L12.7072 13.97C12.6145 14.0577 12.5043 14.1273 12.383 14.1747C12.2616 14.2221 12.1316 14.2464 12.0002 14.2463Z" fill="#FCFBF4"/>
</svg>
