<svg width="21" height="14" viewBox="0 0 21 14" fill="none" xmlns="http://www.w3.org/2000/svg">
<path d="M10.4996 9C11.0833 9 11.6431 8.78929 12.0558 8.41421C12.4686 8.03914 12.7004 7.53043 12.7004 7C12.7004 6.46957 12.4686 5.96086 12.0558 5.58579C11.6431 5.21071 11.0833 5 10.4996 5C9.91594 5 9.35616 5.21071 8.94343 5.58579C8.5307 5.96086 8.29883 6.46957 8.29883 7C8.29883 7.53043 8.5307 8.03914 8.94343 8.41421C9.35616 8.78929 9.91594 9 10.4996 9Z" fill="#FCFBF4"/>
<path fill-rule="evenodd" clip-rule="evenodd" d="M0 7C1.40191 2.943 5.57242 0 10.5 0C15.4276 0 19.5981 2.943 21 7C19.5981 11.057 15.4276 14 10.5 14C5.57242 14 1.40191 11.057 0 7ZM14.9016 7C14.9016 8.06087 14.4379 9.07828 13.6124 9.82843C12.7869 10.5786 11.6674 11 10.5 11C9.33263 11 8.21306 10.5786 7.3876 9.82843C6.56214 9.07828 6.09841 8.06087 6.09841 7C6.09841 5.93913 6.56214 4.92172 7.3876 4.17157C8.21306 3.42143 9.33263 3 10.5 3C11.6674 3 12.7869 3.42143 13.6124 4.17157C14.4379 4.92172 14.9016 5.93913 14.9016 7Z" fill="#FCFBF4"/>
</svg>
