<svg width="21" height="20" viewBox="0 0 21 20" fill="none" xmlns="http://www.w3.org/2000/svg">
<path d="M6.073 10.1638L2.212 6.52347C0.692 8.08578 0.116 9.65093 0.106 9.68298L0 9.98093L0.105 10.2789C0.127 10.342 2.421 16.5809 10.054 16.5809C10.983 16.5809 11.829 16.4848 12.606 16.3235L9.86 13.7344C8.87128 13.6887 7.93595 13.2979 7.23598 12.6379C6.53601 11.9779 6.12147 11.0961 6.073 10.1638ZM10.054 3.38093C8.199 3.38093 6.679 3.76184 5.412 4.3219L1.707 0.828613L0.293 2.16181L18.293 19.1332L19.707 17.8L16.409 14.6905C19.047 12.8491 19.988 10.3185 20.002 10.2789L20.107 9.98093L20.002 9.68298C19.98 9.61981 17.687 3.38093 10.054 3.38093ZM11.96 10.4957C12.147 9.85741 11.988 9.13896 11.468 8.64773C10.948 8.1565 10.185 8.00753 9.508 8.18384L8 6.76201C8.61796 6.40371 9.32855 6.21257 10.054 6.2095C12.26 6.2095 14.054 7.90098 14.054 9.98093C14.051 10.6648 13.8479 11.3346 13.467 11.9166L11.96 10.4957Z" fill="#FCFBF4"/>
</svg>
