<svg width="25" height="24" viewBox="0 0 25 24" fill="none" xmlns="http://www.w3.org/2000/svg">
<path d="M22.25 10.5741H19.7188V8.06379C19.7188 7.67265 19.3836 7.35665 18.9688 7.35665H11.5859L8.83672 4.87723C8.80174 4.84635 8.75573 4.829 8.70781 4.82861H2.75C2.33516 4.82861 2 5.14462 2 5.53576V18.6179C2 19.009 2.33516 19.325 2.75 19.325H19.1094C19.4141 19.325 19.6906 19.1505 19.8055 18.8831L22.9461 11.5465C22.9813 11.4625 23 11.3719 23 11.2813C23 10.8902 22.6648 10.5741 22.25 10.5741ZM18.0312 10.5741H6.07812C5.77344 10.5741 5.49688 10.7487 5.38203 11.0161L3.6875 14.9761V6.41968H8.10547L10.9086 8.94772H18.0312V10.5741Z" fill="#FCFBF4"/>
</svg>
