<svg width="11" height="16" viewBox="0 0 11 16" fill="none" xmlns="http://www.w3.org/2000/svg">
<path d="M0.86017 8C0.859956 7.79913 0.900509 7.6002 0.979498 7.41464C1.05849 7.22907 1.17435 7.06053 1.32045 6.91869L7.98424 0.429329C8.28052 0.150731 8.67734 -0.00342695 9.08922 5.77507e-05C9.50111 0.00354245 9.89512 0.164391 10.1864 0.44796C10.4776 0.731528 10.6428 1.11513 10.6464 1.51614C10.65 1.91715 10.4917 2.30349 10.2055 2.59194L4.65235 8L10.2055 13.4081C10.4917 13.6965 10.65 14.0828 10.6464 14.4839C10.6428 14.8849 10.4776 15.2685 10.1864 15.552C9.89512 15.8356 9.50111 15.9965 9.08922 15.9999C8.67734 16.0034 8.28052 15.8493 7.98424 15.5707L1.32045 9.0813C1.17435 8.93947 1.05849 8.77093 0.979498 8.58536C0.900508 8.3998 0.859956 8.20087 0.86017 8Z" fill="#01555A"/>
</svg>
