<svg width="24" height="23" viewBox="0 0 24 23" fill="none" xmlns="http://www.w3.org/2000/svg">
<path d="M4 12.5144C4.55228 12.5144 5 12.0922 5 11.5715C5 11.0508 4.55228 10.6287 4 10.6287C3.44772 10.6287 3 11.0508 3 11.5715C3 12.0922 3.44772 12.5144 4 12.5144Z" stroke="#FCFBF4" stroke-width="2"/>
<path d="M12 12.5144C12.5523 12.5144 13 12.0922 13 11.5715C13 11.0508 12.5523 10.6287 12 10.6287C11.4477 10.6287 11 11.0508 11 11.5715C11 12.0922 11.4477 12.5144 12 12.5144Z" stroke="#FCFBF4" stroke-width="2"/>
<path d="M20 12.5144C20.5523 12.5144 21 12.0922 21 11.5715C21 11.0508 20.5523 10.6287 20 10.6287C19.4477 10.6287 19 11.0508 19 11.5715C19 12.0922 19.4477 12.5144 20 12.5144Z" stroke="#FCFBF4" stroke-width="2"/>
</svg>
