<svg width="24" height="30" viewBox="0 0 24 30" fill="none" xmlns="http://www.w3.org/2000/svg">
<path d="M11.0219 17.5821L9.53866 19.0664L5.08691 14.6157L9.53761 10.165L11.0208 11.6493L8.05545 14.6157L11.0219 17.5821ZM12.054 17.5821L13.5373 19.0664L17.989 14.6157L13.5383 10.165L12.0551 11.6493L15.0205 14.6157L12.054 17.5821Z" fill="#01555A"/>
<path fill-rule="evenodd" clip-rule="evenodd" d="M11.5385 3.07689C17.9108 3.07689 23.0769 8.24297 23.0769 14.6153C23.0769 20.9877 17.9108 26.1538 11.5385 26.1538C5.16608 26.1538 0 20.9877 0 14.6153C0 8.24297 5.16608 3.07689 11.5385 3.07689ZM11.5385 5.17479C12.7782 5.17479 14.0058 5.41897 15.1512 5.89341C16.2966 6.36784 17.3373 7.06323 18.2139 7.93987C19.0906 8.8165 19.786 9.85722 20.2604 11.0026C20.7348 12.148 20.979 13.3756 20.979 14.6153C20.979 15.8551 20.7348 17.0827 20.2604 18.2281C19.786 19.3735 19.0906 20.4142 18.2139 21.2908C17.3373 22.1675 16.2966 22.8629 15.1512 23.3373C14.0058 23.8117 12.7782 24.0559 11.5385 24.0559C9.03467 24.0559 6.63343 23.0613 4.86298 21.2908C3.09253 19.5204 2.0979 17.1191 2.0979 14.6153C2.0979 12.1116 3.09253 9.71031 4.86298 7.93987C6.63343 6.16942 9.03467 5.17479 11.5385 5.17479Z" fill="#01555A"/>
<line x1="11.7695" y1="4.37121e-08" x2="11.7695" y2="30" stroke="#01555A" stroke-width="2"/>
</svg>
