<svg width="60" height="70" viewBox="0 0 60 70" fill="none" xmlns="http://www.w3.org/2000/svg">
<path d="M44.0426 18.8025V14.9783C44.0426 14.6277 43.7553 14.3409 43.4043 14.3409H12.766C12.4149 14.3409 12.1277 14.6277 12.1277 14.9783V18.8025C12.1277 19.1531 12.4149 19.4399 12.766 19.4399H43.4043C43.7553 19.4399 44.0426 19.1531 44.0426 18.8025ZM12.766 25.8136C12.4149 25.8136 12.1277 26.1004 12.1277 26.451V30.2752C12.1277 30.6258 12.4149 30.9126 12.766 30.9126H27.4468C27.7979 30.9126 28.0851 30.6258 28.0851 30.2752V26.451C28.0851 26.1004 27.7979 25.8136 27.4468 25.8136H12.766ZM42.766 35.0555C33.2473 35.0555 25.5319 42.7598 25.5319 52.2646C25.5319 61.7694 33.2473 69.4737 42.766 69.4737C52.2846 69.4737 60 61.7694 60 52.2646C60 42.7598 52.2846 35.0555 42.766 35.0555ZM51.3431 60.8293C49.0532 63.1159 46.0053 64.3747 42.766 64.3747C39.5266 64.3747 36.4787 63.1159 34.1888 60.8293C31.8989 58.5427 30.6383 55.4993 30.6383 52.2646C30.6383 49.0299 31.8989 45.9865 34.1888 43.6999C36.4787 41.4133 39.5266 40.1545 42.766 40.1545C46.0053 40.1545 49.0532 41.4133 51.3431 43.6999C53.633 45.9865 54.8936 49.0299 54.8936 52.2646C54.8936 55.4993 53.633 58.5427 51.3431 60.8293ZM40.2128 58.6383C40.2128 59.3145 40.4818 59.963 40.9606 60.4411C41.4394 60.9192 42.0888 61.1878 42.766 61.1878C43.4431 61.1878 44.0925 60.9192 44.5713 60.4411C45.0502 59.963 45.3191 59.3145 45.3191 58.6383C45.3191 57.9622 45.0502 57.3137 44.5713 56.8356C44.0925 56.3575 43.4431 56.0888 42.766 56.0888C42.0888 56.0888 41.4394 56.3575 40.9606 56.8356C40.4818 57.3137 40.2128 57.9622 40.2128 58.6383ZM41.1702 53.5394H44.3617C44.7128 53.5394 45 53.2525 45 52.902V43.9788C45 43.6282 44.7128 43.3414 44.3617 43.3414H41.1702C40.8191 43.3414 40.5319 43.6282 40.5319 43.9788V52.902C40.5319 53.2525 40.8191 53.5394 41.1702 53.5394ZM24.2553 61.8252H5.74468V5.73636H50.4255V33.1434C50.4255 33.494 50.7128 33.7808 51.0638 33.7808H55.5319C55.883 33.7808 56.1702 33.494 56.1702 33.1434V2.54949C56.1702 1.1393 55.0293 0 53.617 0H2.55319C1.14096 0 0 1.1393 0 2.54949V65.0121C0 66.4223 1.14096 67.5616 2.55319 67.5616H24.2553C24.6064 67.5616 24.8936 67.2747 24.8936 66.9242V62.4626C24.8936 62.112 24.6064 61.8252 24.2553 61.8252Z" fill="#FCFBF4"/>
</svg>
