<svg width="24" height="22" viewBox="0 0 24 22" fill="none" xmlns="http://www.w3.org/2000/svg">
<path d="M23.7417 8.8087C24.2167 10.5677 23.1625 12.376 21.3833 12.8456L20.7375 13.0145C20.0292 13.204 19.2958 12.788 19.1042 12.0836L18.0542 8.2114L3.9625 11.8158V18.3738H5.72083L7.93333 12.1248L11.0042 11.2927L9.94583 14.4192H12.7208L11.5792 11.1897L14.1667 10.5265L16.9458 18.3738H22.6667C23.4042 18.3738 24 18.9628 24 19.6919C24 20.4211 23.4042 21.0101 22.6667 21.0101H1.33333C0.597083 21.0101 0 20.4211 0 19.6919C0 18.9628 0.597083 18.3738 1.33333 18.3738H2V7.49876C2 6.95089 2.44792 6.51012 3 6.51012C3.55208 6.51012 4 6.95089 4 7.49876V9.08882L9.50833 7.68001L10.075 6.07348C10.2625 5.5462 10.7667 5.19194 11.3333 5.19194C11.9 5.19194 12.4042 5.5462 12.5917 6.07348L12.8542 6.81907L17.3667 5.66566L16.3458 1.89814C16.1542 1.19497 16.575 0.472028 17.2875 0.283692L17.9333 0.113111C19.7083 -0.357974 21.5375 0.685408 22.0125 2.44353L23.7417 8.8087ZM8.54583 18.3738H14.1208L13.6542 17.0556H9.0125L8.54583 18.3738Z" fill="#01555A"/>
</svg>
