<svg width="18" height="14" viewBox="0 0 18 14" fill="none" xmlns="http://www.w3.org/2000/svg">
<path d="M0.804248 13.2924C0.959248 13.5258 1.22008 13.6666 1.50008 13.6666H14.0001C14.3334 13.6666 14.6351 13.4682 14.7659 13.1616L17.2659 7.32825C17.3207 7.20153 17.3431 7.06317 17.331 6.92564C17.319 6.78811 17.2729 6.65575 17.1969 6.54049C17.1209 6.42523 17.0174 6.3307 16.8958 6.26542C16.7741 6.20015 16.6381 6.16618 16.5001 6.16658H15.6667V3.66658C15.6667 2.74742 14.9192 1.99992 14.0001 1.99992H8.45425L6.32425 0.333252H2.33341C1.41425 0.333252 0.666748 1.08075 0.666748 1.99992V12.8333H0.672581C0.670724 12.9959 0.716493 13.1555 0.804248 13.2924ZM14.0001 3.66658V6.16658H4.00008C3.66675 6.16658 3.36508 6.36492 3.23425 6.67158L2.33341 8.77408V3.66658H14.0001Z" fill="black"/>
</svg>
