<svg width="26" height="20" viewBox="0 0 26 20" fill="none" xmlns="http://www.w3.org/2000/svg">
<path d="M25.9791 2.47932C25.9231 2.12374 25.7603 1.79357 25.5124 1.53259C25.2645 1.27162 24.9431 1.09217 24.5908 1.01804L20.302 0.0755117C19.8421 -0.0247969 19.3659 -0.0251734 18.9059 0.0744072C18.4458 0.173988 18.0124 0.371203 17.6351 0.652718L4.95852 9.88802L1.40761 9.74189C1.12216 9.73167 0.840743 9.81166 0.603338 9.97048C0.365932 10.1293 0.184605 10.3589 0.0851105 10.6266C-0.0143837 10.8944 -0.0269863 11.1867 0.0490929 11.462C0.125172 11.7373 0.286065 11.9816 0.508919 12.1603L4.16212 15.0317C4.60051 15.5651 4.89276 15.4628 12.148 11.51L12.8275 18.3927C12.8388 18.5804 12.9032 18.7611 13.0131 18.9137C13.1231 19.0664 13.2741 19.1846 13.4486 19.2548C13.5741 19.3045 13.7081 19.3293 13.8431 19.3279C14.1149 19.3196 14.3744 19.2132 14.5738 19.0283L16.32 17.4355C16.4939 17.2744 16.6116 17.0619 16.6561 16.8291L18.2562 8.13448C20.8646 6.6732 23.3341 5.29959 25.095 4.29862C25.41 4.12141 25.6635 3.85227 25.8214 3.52718C25.9794 3.20208 26.0344 2.83651 25.9791 2.47932ZM24.3717 3.0273C22.545 4.06481 19.9878 5.51879 17.2406 7.02391L16.941 7.19195L15.2386 16.4492L14.1646 17.4282L13.3609 9.17199L12.3891 9.66883C7.15044 12.5914 5.40421 13.4389 4.80509 13.702L1.66333 11.2105L5.37499 11.3712L18.5265 1.82905C18.7332 1.6745 18.9703 1.56533 19.2221 1.50867C19.4739 1.45201 19.7348 1.44915 19.9878 1.50026L24.2621 2.42087C24.3279 2.43281 24.3882 2.46548 24.4342 2.5141C24.4802 2.56273 24.5095 2.62478 24.5178 2.69121C24.5328 2.75549 24.5267 2.82292 24.5004 2.88346C24.4741 2.94401 24.4289 2.99445 24.3717 3.0273Z" fill="#01555A"/>
<path d="M4.95943 5.67951L7.56052 6.41015L8.75877 5.54069L5.8362 4.69315L7.15136 3.88944L11.148 3.77254L12.8284 2.55237L7.15136 2.72772C6.97238 2.71804 6.79451 2.76124 6.63991 2.85193L4.71832 3.96981C4.55946 4.06392 4.43201 4.20296 4.35203 4.36939C4.27206 4.53582 4.24314 4.7222 4.26893 4.90504C4.29471 5.08788 4.37405 5.25899 4.49693 5.39682C4.61981 5.53464 4.78074 5.633 4.95943 5.67951Z" fill="#01555A"/>
</svg>
