<svg width="20" height="20" viewBox="0 0 20 20" fill="none" xmlns="http://www.w3.org/2000/svg">
<path d="M10 13.3333L11.1667 12.1666L9.85417 10.8333H13.3333V9.16658H9.85417L11.1667 7.83325L10 6.66658L6.66667 9.99992L10 13.3333ZM2.5 17.4999V2.49992H7.66667C7.84722 1.99992 8.14944 1.59714 8.57333 1.29159C8.99667 0.98603 9.47222 0.833252 10 0.833252C10.5278 0.833252 11.0036 0.98603 11.4275 1.29159C11.8508 1.59714 12.1528 1.99992 12.3333 2.49992H17.5V17.4999H2.5ZM10 3.54159C10.1806 3.54159 10.33 3.48242 10.4483 3.36409C10.5661 3.24631 10.625 3.09714 10.625 2.91659C10.625 2.73603 10.5661 2.58659 10.4483 2.46825C10.33 2.35047 10.1806 2.29159 10 2.29159C9.81944 2.29159 9.67028 2.35047 9.5525 2.46825C9.43417 2.58659 9.375 2.73603 9.375 2.91659C9.375 3.09714 9.43417 3.24631 9.5525 3.36409C9.67028 3.48242 9.81944 3.54159 10 3.54159ZM15.8333 15.8333V4.16659H4.16667V15.8333H15.8333ZM4.16667 4.16659V15.8333V4.16659Z" fill="black"/>
</svg>
