<svg width="12" height="12" viewBox="0 0 12 12" fill="none" xmlns="http://www.w3.org/2000/svg">
<path d="M4.5 0C4.36739 0 4.24021 0.0526785 4.14645 0.146447C4.05268 0.240215 4 0.367392 4 0.5C4 0.632608 4.05268 0.759785 4.14645 0.853553C4.24021 0.947321 4.36739 1 4.5 1H5.5V11H4.5C4.36739 11 4.24021 11.0527 4.14645 11.1464C4.05268 11.2402 4 11.3674 4 11.5C4 11.6326 4.05268 11.7598 4.14645 11.8536C4.24021 11.9473 4.36739 12 4.5 12H7.5C7.63261 12 7.75979 11.9473 7.85355 11.8536C7.94732 11.7598 8 11.6326 8 11.5C8 11.3674 7.94732 11.2402 7.85355 11.1464C7.75979 11.0527 7.63261 11 7.5 11H6.5V1H7.5C7.63261 1 7.75979 0.947321 7.85355 0.853553C7.94732 0.759785 8 0.632608 8 0.5C8 0.367392 7.94732 0.240215 7.85355 0.146447C7.75979 0.0526785 7.63261 0 7.5 0H4.5ZM2 2H4.5V3H2C1.73478 3 1.48043 3.10536 1.29289 3.29289C1.10536 3.48043 1 3.73478 1 4V7.997C1 8.26222 1.10536 8.51657 1.29289 8.70411C1.48043 8.89164 1.73478 8.997 2 8.997H4.5V9.997H2C1.46957 9.997 0.960859 9.78629 0.585786 9.41121C0.210714 9.03614 0 8.52743 0 7.997V4C0 3.46957 0.210714 2.96086 0.585786 2.58579C0.960859 2.21071 1.46957 2 2 2ZM10 8.997H7.5V9.997H10C10.5304 9.997 11.0391 9.78629 11.4142 9.41121C11.7893 9.03614 12 8.52743 12 7.997V4C12 3.46957 11.7893 2.96086 11.4142 2.58579C11.0391 2.21071 10.5304 2 10 2H7.5V3H10C10.2652 3 10.5196 3.10536 10.7071 3.29289C10.8946 3.48043 11 3.73478 11 4V7.997C11 8.26222 10.8946 8.51657 10.7071 8.70411C10.5196 8.89164 10.2652 8.997 10 8.997Z" fill="#01555A"/>
</svg>
