<svg width="49" height="49" viewBox="0 0 49 49" fill="none" xmlns="http://www.w3.org/2000/svg">
<circle cx="24.4197" cy="24.4954" r="22.8425" fill="#C39985" stroke="#FCFBF4" stroke-width="2"/>
<path d="M23.5109 30.3493L20.6937 33.1685L12.2383 24.715L20.6917 16.2616L23.5089 19.0807L17.8766 24.715L23.5109 30.3493ZM25.4713 30.3493L28.2885 33.1685L36.7439 24.715L28.2904 16.2616L25.4733 19.0807L31.1056 24.715L25.4713 30.3493Z" fill="#FCFBF4"/>
<path fill-rule="evenodd" clip-rule="evenodd" d="M24.4927 2.79871C36.5961 2.79871 46.4083 12.6109 46.4083 24.7143C46.4083 36.8177 36.5961 46.6299 24.4927 46.6299C12.3894 46.6299 2.57715 36.8177 2.57715 24.7143C2.57715 12.6109 12.3894 2.79871 24.4927 2.79871ZM24.4927 6.78336C26.8475 6.78336 29.1791 7.24716 31.3546 8.14827C33.5301 9.04939 35.5068 10.3702 37.1718 12.0352C38.8369 13.7003 40.1576 15.6769 41.0588 17.8524C41.9599 20.0279 42.4237 22.3596 42.4237 24.7143C42.4237 27.069 41.9599 29.4007 41.0588 31.5762C40.1576 33.7516 38.8369 35.7283 37.1718 37.3934C35.5068 39.0584 33.5301 40.3792 31.3546 41.2803C29.1791 42.1814 26.8475 42.6452 24.4927 42.6452C19.7372 42.6452 15.1764 40.7561 11.8136 37.3934C8.45095 34.0307 6.5618 29.4699 6.5618 24.7143C6.5618 19.9587 8.45095 15.3979 11.8136 12.0352C15.1764 8.67251 19.7372 6.78336 24.4927 6.78336Z" fill="#C39985"/>
</svg>
