<svg width="24" height="24" viewBox="0 0 24 24" fill="none" xmlns="http://www.w3.org/2000/svg">
<path d="M11.9998 9.20025C12.1311 9.20012 12.2612 9.22446 12.3825 9.27187C12.5038 9.31927 12.614 9.38882 12.7068 9.4765L16.9498 13.4761C17.1319 13.6539 17.2327 13.8921 17.2304 14.1393C17.2282 14.3865 17.123 14.623 16.9376 14.7978C16.7522 14.9726 16.5014 15.0718 16.2392 15.0739C15.977 15.0761 15.7244 14.9811 15.5358 14.8093L11.9998 11.4763L8.46376 14.8093C8.27515 14.9811 8.02255 15.0761 7.76036 15.0739C7.49816 15.0718 7.24735 14.9726 7.06194 14.7978C6.87653 14.623 6.77136 14.3865 6.76908 14.1393C6.7668 13.8921 6.8676 13.6539 7.04976 13.4761L11.2928 9.4765C11.3855 9.38882 11.4957 9.31927 11.617 9.27187C11.7384 9.22446 11.8684 9.20012 11.9998 9.20025Z" fill="#FCFBF4"/>
</svg>
