<svg width="30" height="30" viewBox="0 0 30 30" fill="none" xmlns="http://www.w3.org/2000/svg">
<path opacity="0.25" d="M26.25 2.5H11.25C10.9187 2.5 10.6009 2.63152 10.3666 2.86567C10.1322 3.09982 10.0003 3.41745 10 3.74875V8.75H20C20.3313 8.75 20.6491 8.88152 20.8834 9.11567C21.1178 9.34982 21.2497 9.66745 21.25 9.99875V20H26.25C26.5813 20 26.8991 19.8685 27.1334 19.6343C27.3678 19.4002 27.4997 19.0826 27.5 18.7513V3.75C27.5 3.4187 27.3685 3.10094 27.1343 2.86656C26.9002 2.63217 26.5826 2.50033 26.2512 2.5H26.25Z" fill="#01555A"/>
<path d="M2.625 13.75H13.625C13.9897 13.75 14.3394 13.8949 14.5973 14.1527C14.8551 14.4106 15 14.7603 15 15.125V26.125C15 26.4897 14.8551 26.8394 14.5973 27.0973C14.3394 27.3551 13.9897 27.5 13.625 27.5H2.625C2.26033 27.5 1.91059 27.3551 1.65273 27.0973C1.39487 26.8394 1.25 26.4897 1.25 26.125V15.125C1.25 14.7603 1.39487 14.4106 1.65273 14.1527C1.91059 13.8949 2.26033 13.75 2.625 13.75Z" fill="#01555A"/>
<path opacity="0.5" d="M20 8.75H7.5C7.1687 8.75 6.85094 8.88152 6.61656 9.11567C6.38217 9.34982 6.25033 9.66745 6.25 9.99875V15H13.75C14.0813 15 14.3991 15.1315 14.6334 15.3657C14.8678 15.5998 14.9997 15.9174 15 16.2488V23.75H20C20.3313 23.75 20.6491 23.6185 20.8834 23.3843C21.1178 23.1502 21.2497 22.8326 21.25 22.5013V10C21.25 9.6687 21.1185 9.35094 20.8843 9.11656C20.6502 8.88217 20.3326 8.75033 20.0012 8.75H20Z" fill="#01555A"/>
<path fill-rule="evenodd" clip-rule="evenodd" d="M8.125 25C10.5412 25 12.5 23.0412 12.5 20.625C12.5 18.2088 10.5412 16.25 8.125 16.25C5.70875 16.25 3.75 18.2088 3.75 20.625C3.75 23.0412 5.70875 25 8.125 25ZM8.125 23.75C9.85089 23.75 11.25 22.3509 11.25 20.625C11.25 18.8991 9.85089 17.5 8.125 17.5C6.39911 17.5 5 18.8991 5 20.625C5 22.3509 6.39911 23.75 8.125 23.75Z" fill="#FCFBF4"/>
<path d="M8.125 22.5C7.75415 22.5 7.39164 22.39 7.0833 22.184C6.77496 21.978 6.53463 21.6852 6.39272 21.3425C6.2508 20.9999 6.21367 20.6229 6.28602 20.2592C6.35837 19.8955 6.53694 19.5614 6.79917 19.2992C7.06139 19.037 7.39548 18.8584 7.7592 18.786C8.12292 18.7137 8.49992 18.7508 8.84253 18.8927C9.18514 19.0346 9.47798 19.275 9.684 19.5833C9.89003 19.8917 10 20.2542 10 20.625C9.99945 21.1221 9.80173 21.5987 9.45022 21.9502C9.09871 22.3017 8.62211 22.4995 8.125 22.5ZM9.00756 20.4924C8.9724 20.4573 8.92472 20.4375 8.875 20.4375C8.82528 20.4375 8.7776 20.4573 8.74243 20.4924L8.3125 20.9224V19.875C8.3125 19.8253 8.29274 19.7776 8.25758 19.7424C8.22241 19.7073 8.17472 19.6875 8.125 19.6875C8.07527 19.6875 8.02758 19.7073 7.99241 19.7424C7.95725 19.7776 7.93749 19.8253 7.93749 19.875V20.9224L7.50756 20.4924C7.47219 20.4583 7.42483 20.4394 7.37567 20.4398C7.32651 20.4402 7.27948 20.46 7.24471 20.4947C7.20995 20.5295 7.19023 20.5765 7.1898 20.6257C7.18938 20.6748 7.20828 20.7222 7.24243 20.7576L7.99243 21.5076C8.02769 21.5425 8.07534 21.5622 8.125 21.5622C8.17465 21.5622 8.2223 21.5425 8.25756 21.5076L9.00756 20.7576C9.04271 20.7224 9.06246 20.6747 9.06246 20.625C9.06246 20.5753 9.04271 20.5276 9.00756 20.4924Z" fill="white"/>
</svg>
