<svg width="28" height="28" viewBox="0 0 28 28" fill="none" xmlns="http://www.w3.org/2000/svg">
<path opacity="0.25" d="M2.5 16.25H17.5V27.5H20V2.5H17.5V13.75H2.5V16.25Z" fill="#01555A"/>
<path d="M26.25 27.5H20V2.5H26.25C26.5815 2.5 26.8995 2.6317 27.1339 2.86612C27.3683 3.10054 27.5 3.41848 27.5 3.75V26.25C27.5 26.5815 27.3683 26.8995 27.1339 27.1339C26.8995 27.3683 26.5815 27.5 26.25 27.5Z" fill="#01555A"/>
<path opacity="0.5" d="M17.5 27.5H3.75C3.41848 27.5 3.10054 27.3683 2.86612 27.1339C2.6317 26.8995 2.5 26.5815 2.5 26.25V16.25H17.5V27.5ZM17.5 13.75H2.5V3.75C2.5 3.41848 2.6317 3.10054 2.86612 2.86612C3.10054 2.6317 3.41848 2.5 3.75 2.5H17.5V13.75Z" fill="#01555A"/>
</svg>
