<svg width="30" height="30" viewBox="0 0 30 30" fill="none" xmlns="http://www.w3.org/2000/svg">
<path opacity="0.5" d="M12.5 2.5H3.75C3.05964 2.5 2.5 3.05964 2.5 3.75V12.5C2.5 13.1904 3.05964 13.75 3.75 13.75H12.5C13.1904 13.75 13.75 13.1904 13.75 12.5V3.75C13.75 3.05964 13.1904 2.5 12.5 2.5Z" fill="#01555A"/>
<path opacity="0.5" d="M12.5 16.25H3.75C3.05964 16.25 2.5 16.8096 2.5 17.5V26.25C2.5 26.9404 3.05964 27.5 3.75 27.5H12.5C13.1904 27.5 13.75 26.9404 13.75 26.25V17.5C13.75 16.8096 13.1904 16.25 12.5 16.25Z" fill="#01555A"/>
<path d="M27 1.5H16.5C15.6716 1.5 15 2.17157 15 3V13.5C15 14.3284 15.6716 15 16.5 15H27C27.8284 15 28.5 14.3284 28.5 13.5V3C28.5 2.17157 27.8284 1.5 27 1.5Z" fill="#01555A"/>
<path opacity="0.5" d="M26.25 16.25H17.5C16.8096 16.25 16.25 16.8096 16.25 17.5V26.25C16.25 26.9404 16.8096 27.5 17.5 27.5H26.25C26.9404 27.5 27.5 26.9404 27.5 26.25V17.5C27.5 16.8096 26.9404 16.25 26.25 16.25Z" fill="#01555A"/>
</svg>
