<svg width="30" height="30" viewBox="0 0 30 30" fill="none" xmlns="http://www.w3.org/2000/svg">
<path opacity="0.5" d="M15.75 0H1.75C0.783502 0 0 0.783502 0 1.75V15.75C0 16.7165 0.783502 17.5 1.75 17.5H15.75C16.7165 17.5 17.5 16.7165 17.5 15.75V1.75C17.5 0.783502 16.7165 0 15.75 0Z" fill="#01555A" fill-opacity="0.3"/>
<path d="M5 27.5C4.50555 27.5 4.0222 27.3534 3.61108 27.0787C3.19995 26.804 2.87952 26.4135 2.6903 25.9567C2.50108 25.4999 2.45157 24.9972 2.54804 24.5123C2.6445 24.0273 2.8826 23.5819 3.23223 23.2322C3.58187 22.8826 4.02732 22.6445 4.51228 22.548C4.99723 22.4516 5.49989 22.5011 5.95671 22.6903C6.41353 22.8795 6.80397 23.2 7.07868 23.6111C7.35338 24.0222 7.5 24.5055 7.5 25C7.49901 25.6627 7.2353 26.298 6.76667 26.7667C6.29805 27.2353 5.66274 27.499 5 27.5ZM5 7.5C4.50555 7.5 4.0222 7.35338 3.61108 7.07868C3.19995 6.80397 2.87952 6.41353 2.6903 5.95671C2.50108 5.49989 2.45157 4.99723 2.54804 4.51228C2.6445 4.02732 2.8826 3.58187 3.23223 3.23223C3.58187 2.8826 4.02732 2.6445 4.51228 2.54804C4.99723 2.45157 5.49989 2.50108 5.95671 2.6903C6.41353 2.87952 6.80397 3.19995 7.07868 3.61108C7.35338 4.0222 7.5 4.50555 7.5 5C7.49901 5.66274 7.2353 6.29805 6.76667 6.76667C6.29805 7.2353 5.66274 7.49901 5 7.5ZM25 7.5C24.5055 7.5 24.0222 7.35338 23.6111 7.07868C23.2 6.80397 22.8795 6.41353 22.6903 5.95671C22.5011 5.49989 22.4516 4.99723 22.548 4.51228C22.6445 4.02732 22.8826 3.58187 23.2322 3.23223C23.5819 2.8826 24.0273 2.6445 24.5123 2.54804C24.9972 2.45157 25.4999 2.50108 25.9567 2.6903C26.4135 2.87952 26.804 3.19995 27.0787 3.61108C27.3534 4.0222 27.5 4.50555 27.5 5C27.499 5.66274 27.2353 6.29805 26.7667 6.76667C26.298 7.2353 25.6627 7.49901 25 7.5ZM25 27.5C24.5055 27.5 24.0222 27.3534 23.6111 27.0787C23.2 26.804 22.8795 26.4135 22.6903 25.9567C22.5011 25.4999 22.4516 24.9972 22.548 24.5123C22.6445 24.0273 22.8826 23.5819 23.2322 23.2322C23.5819 22.8826 24.0273 22.6445 24.5123 22.548C24.9972 22.4516 25.4999 22.5011 25.9567 22.6903C26.4135 22.8795 26.804 23.2 27.0787 23.6111C27.3534 24.0222 27.5 24.5055 27.5 25C27.499 25.6627 27.2353 26.298 26.7667 26.7667C26.298 27.2353 25.6627 27.499 25 27.5Z" fill="#01555A"/>
<path opacity="0.25" d="M22.8475 6.25C22.6199 5.87276 22.4997 5.44056 22.4997 5C22.4997 4.55944 22.6199 4.12724 22.8475 3.75H7.1525C7.38006 4.12724 7.50033 4.55944 7.50033 5C7.50033 5.44056 7.38006 5.87276 7.1525 6.25H22.8475ZM25 22.5C25.4402 22.5024 25.8717 22.6224 26.25 22.8475V7.1525C25.8728 7.38006 25.4406 7.50033 25 7.50033C24.5594 7.50033 24.1272 7.38006 23.75 7.1525V22.8475C24.1283 22.6224 24.5598 22.5024 25 22.5ZM5 22.5C5.44019 22.5024 5.87174 22.6224 6.25 22.8475V7.1525C5.87276 7.38006 5.44056 7.50033 5 7.50033C4.55944 7.50033 4.12724 7.38006 3.75 7.1525V22.8475C4.12826 22.6224 4.55981 22.5024 5 22.5ZM22.8475 23.75H7.1525C7.38006 24.1272 7.50033 24.5594 7.50033 25C7.50033 25.4406 7.38006 25.8728 7.1525 26.25H22.8475C22.6199 25.8728 22.4997 25.4406 22.4997 25C22.4997 24.5594 22.6199 24.1272 22.8475 23.75Z" fill="#01555A"/>
<path opacity="0.8" d="M20 8.75H10C9.30964 8.75 8.75 9.30964 8.75 10V20C8.75 20.6904 9.30964 21.25 10 21.25H20C20.6904 21.25 21.25 20.6904 21.25 20V10C21.25 9.30964 20.6904 8.75 20 8.75Z" fill="#01555A"/>
</svg>
