<svg width="30" height="30" viewBox="0 0 30 30" fill="none"
  xmlns="http://www.w3.org/2000/svg">
  <path opacity="0.5" d="M23.75 3.75H6.25C4.17893 3.75 2.5 5.42893 2.5 7.5V18.75C2.5 20.8211 4.17893 22.5 6.25 22.5H23.75C25.8211 22.5 27.5 20.8211 27.5 18.75V7.5C27.5 5.42893 25.8211 3.75 23.75 3.75Z" fill="#01555A"/>
  <path d="M20.0002 26.25H10.0002C9.77388 26.25 9.55182 26.1886 9.35768 26.0723C9.16354 25.956 9.00461 25.7892 8.89784 25.5897C8.79108 25.3901 8.74049 25.1654 8.75147 24.9393C8.76245 24.7133 8.83459 24.4945 8.96019 24.3062L13.9602 16.8062C14.081 16.6443 14.2379 16.5128 14.4184 16.4223C14.599 16.3317 14.7982 16.2845 15.0002 16.2845C15.2022 16.2845 15.4014 16.3317 15.5819 16.4223C15.7625 16.5128 15.9194 16.6443 16.0402 16.8062L21.0402 24.3062C21.1658 24.4945 21.2379 24.7133 21.2489 24.9393C21.2599 25.1654 21.2093 25.3901 21.1025 25.5897C20.9958 25.7892 20.8368 25.956 20.6427 26.0723C20.4486 26.1886 20.2265 26.25 20.0002 26.25Z" fill="#01555A"/>
</svg>
